<mxfile host="app.diagrams.net" modified="2024-01-25T11:03:26.557Z" agent="Mozilla/5.0 (Macintosh; Intel Mac OS X 10_15_7) AppleWebKit/605.1.15 (KHTML, like Gecko) Version/17.2.1 Safari/605.1.15" etag="KIqON3t9kgFSbYxbXjTb" version="23.0.0" type="device">
  <diagram name="Page-1" id="CnT03TZ_5wsiOiCBk9uN">
    <mxGraphModel dx="874" dy="561" grid="1" gridSize="10" guides="1" tooltips="1" connect="1" arrows="1" fold="1" page="1" pageScale="1" pageWidth="827" pageHeight="1169" math="0" shadow="0">
      <root>
        <mxCell id="0" />
        <mxCell id="1" parent="0" />
        <mxCell id="AhNV3txTKEynnAWxGbNM-18" style="edgeStyle=orthogonalEdgeStyle;rounded=0;orthogonalLoop=1;jettySize=auto;html=1;entryX=0.5;entryY=0;entryDx=0;entryDy=0;endArrow=none;endFill=0;" parent="1" source="AhNV3txTKEynnAWxGbNM-2" target="AhNV3txTKEynnAWxGbNM-3" edge="1">
          <mxGeometry relative="1" as="geometry">
            <Array as="points">
              <mxPoint x="620" y="480" />
              <mxPoint x="474" y="480" />
            </Array>
          </mxGeometry>
        </mxCell>
        <mxCell id="AhNV3txTKEynnAWxGbNM-22" style="edgeStyle=orthogonalEdgeStyle;rounded=0;orthogonalLoop=1;jettySize=auto;html=1;entryX=0.5;entryY=0;entryDx=0;entryDy=0;endArrow=none;endFill=0;" parent="1" source="AhNV3txTKEynnAWxGbNM-2" target="AhNV3txTKEynnAWxGbNM-21" edge="1">
          <mxGeometry relative="1" as="geometry">
            <Array as="points">
              <mxPoint x="620" y="480" />
              <mxPoint x="850" y="480" />
            </Array>
          </mxGeometry>
        </mxCell>
        <mxCell id="gv22AO4PbtTH2eKs8vEe-2" style="edgeStyle=orthogonalEdgeStyle;rounded=0;orthogonalLoop=1;jettySize=auto;html=1;endArrow=none;endFill=0;" edge="1" parent="1" source="AhNV3txTKEynnAWxGbNM-2" target="gv22AO4PbtTH2eKs8vEe-1">
          <mxGeometry relative="1" as="geometry" />
        </mxCell>
        <mxCell id="AhNV3txTKEynnAWxGbNM-2" value="Главное меню" style="rounded=0;whiteSpace=wrap;html=1;" parent="1" vertex="1">
          <mxGeometry x="560" y="410" width="120" height="40" as="geometry" />
        </mxCell>
        <mxCell id="AhNV3txTKEynnAWxGbNM-45" style="edgeStyle=orthogonalEdgeStyle;rounded=0;orthogonalLoop=1;jettySize=auto;html=1;endArrow=none;endFill=0;" parent="1" source="AhNV3txTKEynnAWxGbNM-3" target="AhNV3txTKEynnAWxGbNM-39" edge="1">
          <mxGeometry relative="1" as="geometry" />
        </mxCell>
        <mxCell id="AhNV3txTKEynnAWxGbNM-3" value="Управление поставками" style="rounded=0;whiteSpace=wrap;html=1;" parent="1" vertex="1">
          <mxGeometry x="414" y="510" width="120" height="40" as="geometry" />
        </mxCell>
        <mxCell id="AhNV3txTKEynnAWxGbNM-34" style="edgeStyle=orthogonalEdgeStyle;rounded=0;orthogonalLoop=1;jettySize=auto;html=1;entryX=0.5;entryY=0;entryDx=0;entryDy=0;endArrow=none;endFill=0;" parent="1" source="AhNV3txTKEynnAWxGbNM-21" target="AhNV3txTKEynnAWxGbNM-23" edge="1">
          <mxGeometry relative="1" as="geometry" />
        </mxCell>
        <mxCell id="AhNV3txTKEynnAWxGbNM-21" value="Отчётность" style="rounded=0;whiteSpace=wrap;html=1;" parent="1" vertex="1">
          <mxGeometry x="724" y="510" width="120" height="40" as="geometry" />
        </mxCell>
        <mxCell id="AhNV3txTKEynnAWxGbNM-33" style="edgeStyle=orthogonalEdgeStyle;rounded=0;orthogonalLoop=1;jettySize=auto;html=1;entryX=0;entryY=0.5;entryDx=0;entryDy=0;endArrow=none;endFill=0;" parent="1" source="AhNV3txTKEynnAWxGbNM-23" target="AhNV3txTKEynnAWxGbNM-24" edge="1">
          <mxGeometry relative="1" as="geometry">
            <Array as="points">
              <mxPoint x="714" y="610" />
              <mxPoint x="714" y="770" />
            </Array>
          </mxGeometry>
        </mxCell>
        <mxCell id="AhNV3txTKEynnAWxGbNM-23" value="Формирование отчёта о продажах" style="rounded=0;whiteSpace=wrap;html=1;" parent="1" vertex="1">
          <mxGeometry x="724" y="590" width="120" height="40" as="geometry" />
        </mxCell>
        <mxCell id="AhNV3txTKEynnAWxGbNM-28" style="edgeStyle=orthogonalEdgeStyle;rounded=0;orthogonalLoop=1;jettySize=auto;html=1;entryX=0.5;entryY=0;entryDx=0;entryDy=0;endArrow=none;endFill=0;" parent="1" source="AhNV3txTKEynnAWxGbNM-24" target="AhNV3txTKEynnAWxGbNM-25" edge="1">
          <mxGeometry relative="1" as="geometry" />
        </mxCell>
        <mxCell id="gv22AO4PbtTH2eKs8vEe-23" style="edgeStyle=orthogonalEdgeStyle;rounded=0;orthogonalLoop=1;jettySize=auto;html=1;entryX=0;entryY=0.5;entryDx=0;entryDy=0;endArrow=none;endFill=0;" edge="1" parent="1" source="AhNV3txTKEynnAWxGbNM-24" target="gv22AO4PbtTH2eKs8vEe-21">
          <mxGeometry relative="1" as="geometry">
            <Array as="points">
              <mxPoint x="714" y="770" />
              <mxPoint x="714" y="960" />
            </Array>
          </mxGeometry>
        </mxCell>
        <mxCell id="AhNV3txTKEynnAWxGbNM-24" value="Формирование отчёта о поставках" style="rounded=0;whiteSpace=wrap;html=1;" parent="1" vertex="1">
          <mxGeometry x="724" y="750" width="120" height="40" as="geometry" />
        </mxCell>
        <mxCell id="AhNV3txTKEynnAWxGbNM-27" style="edgeStyle=orthogonalEdgeStyle;rounded=0;orthogonalLoop=1;jettySize=auto;html=1;entryX=0.5;entryY=0;entryDx=0;entryDy=0;endArrow=none;endFill=0;" parent="1" source="AhNV3txTKEynnAWxGbNM-25" target="AhNV3txTKEynnAWxGbNM-26" edge="1">
          <mxGeometry relative="1" as="geometry" />
        </mxCell>
        <mxCell id="AhNV3txTKEynnAWxGbNM-25" value="Уточнение переиода" style="rounded=0;whiteSpace=wrap;html=1;" parent="1" vertex="1">
          <mxGeometry x="764" y="820" width="120" height="40" as="geometry" />
        </mxCell>
        <mxCell id="AhNV3txTKEynnAWxGbNM-26" value="Отчёт о поставках&lt;br&gt;за период" style="rounded=0;whiteSpace=wrap;html=1;" parent="1" vertex="1">
          <mxGeometry x="764" y="870" width="120" height="40" as="geometry" />
        </mxCell>
        <mxCell id="AhNV3txTKEynnAWxGbNM-32" style="edgeStyle=orthogonalEdgeStyle;rounded=0;orthogonalLoop=1;jettySize=auto;html=1;entryX=0.5;entryY=0;entryDx=0;entryDy=0;endArrow=none;endFill=0;" parent="1" source="AhNV3txTKEynnAWxGbNM-29" target="AhNV3txTKEynnAWxGbNM-30" edge="1">
          <mxGeometry relative="1" as="geometry" />
        </mxCell>
        <mxCell id="AhNV3txTKEynnAWxGbNM-29" value="Уточнение переиода" style="rounded=0;whiteSpace=wrap;html=1;" parent="1" vertex="1">
          <mxGeometry x="764" y="650" width="120" height="40" as="geometry" />
        </mxCell>
        <mxCell id="AhNV3txTKEynnAWxGbNM-30" value="Отчёт о продажах &lt;br&gt;за период" style="rounded=0;whiteSpace=wrap;html=1;" parent="1" vertex="1">
          <mxGeometry x="764" y="700" width="120" height="40" as="geometry" />
        </mxCell>
        <mxCell id="AhNV3txTKEynnAWxGbNM-31" style="edgeStyle=orthogonalEdgeStyle;rounded=0;orthogonalLoop=1;jettySize=auto;html=1;entryX=0.532;entryY=0.012;entryDx=0;entryDy=0;entryPerimeter=0;endArrow=none;endFill=0;" parent="1" source="AhNV3txTKEynnAWxGbNM-23" target="AhNV3txTKEynnAWxGbNM-29" edge="1">
          <mxGeometry relative="1" as="geometry">
            <Array as="points">
              <mxPoint x="784" y="640" />
              <mxPoint x="824" y="640" />
              <mxPoint x="824" y="651" />
            </Array>
          </mxGeometry>
        </mxCell>
        <mxCell id="AhNV3txTKEynnAWxGbNM-41" style="edgeStyle=orthogonalEdgeStyle;rounded=0;orthogonalLoop=1;jettySize=auto;html=1;entryX=0;entryY=0.5;entryDx=0;entryDy=0;endArrow=none;endFill=0;" parent="1" source="AhNV3txTKEynnAWxGbNM-39" target="AhNV3txTKEynnAWxGbNM-40" edge="1">
          <mxGeometry relative="1" as="geometry">
            <Array as="points">
              <mxPoint x="474" y="650" />
            </Array>
          </mxGeometry>
        </mxCell>
        <mxCell id="AhNV3txTKEynnAWxGbNM-39" value="Добавление поставок" style="rounded=0;whiteSpace=wrap;html=1;" parent="1" vertex="1">
          <mxGeometry x="414" y="585" width="120" height="40" as="geometry" />
        </mxCell>
        <mxCell id="gv22AO4PbtTH2eKs8vEe-20" style="edgeStyle=orthogonalEdgeStyle;rounded=0;orthogonalLoop=1;jettySize=auto;html=1;endArrow=none;endFill=0;" edge="1" parent="1" source="AhNV3txTKEynnAWxGbNM-40" target="gv22AO4PbtTH2eKs8vEe-19">
          <mxGeometry relative="1" as="geometry" />
        </mxCell>
        <mxCell id="AhNV3txTKEynnAWxGbNM-40" value="Редактирование&lt;br&gt;поставок" style="rounded=0;whiteSpace=wrap;html=1;" parent="1" vertex="1">
          <mxGeometry x="414" y="645" width="120" height="40" as="geometry" />
        </mxCell>
        <mxCell id="gv22AO4PbtTH2eKs8vEe-5" style="edgeStyle=orthogonalEdgeStyle;rounded=0;orthogonalLoop=1;jettySize=auto;html=1;entryX=0.5;entryY=0;entryDx=0;entryDy=0;endArrow=none;endFill=0;" edge="1" parent="1" source="gv22AO4PbtTH2eKs8vEe-1" target="gv22AO4PbtTH2eKs8vEe-3">
          <mxGeometry relative="1" as="geometry" />
        </mxCell>
        <mxCell id="gv22AO4PbtTH2eKs8vEe-1" value="Управление учётными записями" style="rounded=0;whiteSpace=wrap;html=1;" vertex="1" parent="1">
          <mxGeometry x="554" y="510" width="120" height="40" as="geometry" />
        </mxCell>
        <mxCell id="gv22AO4PbtTH2eKs8vEe-6" style="edgeStyle=orthogonalEdgeStyle;rounded=0;orthogonalLoop=1;jettySize=auto;html=1;endArrow=none;endFill=0;" edge="1" parent="1" source="gv22AO4PbtTH2eKs8vEe-3" target="gv22AO4PbtTH2eKs8vEe-4">
          <mxGeometry relative="1" as="geometry" />
        </mxCell>
        <mxCell id="gv22AO4PbtTH2eKs8vEe-3" value="Регистрация пользователей" style="rounded=0;whiteSpace=wrap;html=1;" vertex="1" parent="1">
          <mxGeometry x="554" y="585" width="120" height="40" as="geometry" />
        </mxCell>
        <mxCell id="gv22AO4PbtTH2eKs8vEe-4" value="Авторизация пользователей" style="rounded=0;whiteSpace=wrap;html=1;" vertex="1" parent="1">
          <mxGeometry x="554" y="645" width="120" height="40" as="geometry" />
        </mxCell>
        <mxCell id="gv22AO4PbtTH2eKs8vEe-19" value="Составления &lt;br&gt;заявки &lt;br&gt;на поставку" style="rounded=0;whiteSpace=wrap;html=1;" vertex="1" parent="1">
          <mxGeometry x="414" y="710" width="120" height="70" as="geometry" />
        </mxCell>
        <mxCell id="gv22AO4PbtTH2eKs8vEe-21" value="Поиск отчёта или запроса" style="rounded=0;whiteSpace=wrap;html=1;" vertex="1" parent="1">
          <mxGeometry x="724" y="940" width="120" height="40" as="geometry" />
        </mxCell>
        <mxCell id="gv22AO4PbtTH2eKs8vEe-22" value="Искомый отчёт или запрос" style="rounded=0;whiteSpace=wrap;html=1;" vertex="1" parent="1">
          <mxGeometry x="764" y="1000" width="120" height="40" as="geometry" />
        </mxCell>
        <mxCell id="gv22AO4PbtTH2eKs8vEe-24" style="edgeStyle=orthogonalEdgeStyle;rounded=0;orthogonalLoop=1;jettySize=auto;html=1;endArrow=none;endFill=0;" edge="1" parent="1" source="gv22AO4PbtTH2eKs8vEe-21">
          <mxGeometry relative="1" as="geometry">
            <mxPoint x="784" y="990" as="sourcePoint" />
            <mxPoint x="824" y="1000" as="targetPoint" />
            <Array as="points">
              <mxPoint x="784" y="990" />
              <mxPoint x="824" y="990" />
            </Array>
          </mxGeometry>
        </mxCell>
      </root>
    </mxGraphModel>
  </diagram>
</mxfile>
